<svg xmlns="http://www.w3.org/2000/svg" version="1.1" xmlns:xlink="http://www.w3.org/1999/xlink" width="904" height="911"><svg width="904" height="911" viewBox="0 0 904 911" fill="none" xmlns="http://www.w3.org/2000/svg">
<path fill-rule="evenodd" clip-rule="evenodd" d="M280.197 436.005C283.021 459.888 287.022 467.169 301.572 474.957C353.922 503.006 357.569 505.488 366.788 519.392C373.107 528.813 379.641 538.095 386.378 547.225C391.975 554.747 395.204 560.078 393.532 559.091C391.861 558.103 381.249 551.657 369.928 544.769L349.363 532.245L343.449 540.577C335.902 551.189 330.736 569.804 330.723 586.494C330.698 604.627 340.309 623.268 361.127 645.504C378.172 663.688 379.4 664.397 392.165 663.473L405.474 662.511L409.235 677.263C411.311 685.38 413.629 692.649 414.401 693.421C420.315 699.335 449.022 719.102 451.707 719.102C454.227 719.102 482.833 699.436 489.557 693.092C490.064 692.611 492.128 685.507 494.166 677.288L497.851 662.359L511.211 663.422C524.026 664.448 525.292 663.739 542.818 645.719C552.86 635.386 563.725 621.115 566.954 613.985C577.427 590.926 573.45 553.937 558.774 537.715C554.304 532.777 552.708 533.22 533.587 544.87C525.862 549.568 518.138 554.266 510.401 558.926C506.424 561.281 510.666 554.76 527.369 532.853C535.385 522.342 543.059 511.756 544.426 509.337C545.794 506.919 561.395 497.181 579.111 487.696C596.814 478.224 613.099 468.663 615.302 466.473C618.911 462.876 626.648 422.139 624.192 419.682C623.634 419.125 603.247 430.332 578.908 444.591L534.638 470.512L480.845 551.961L482.757 536.424L484.682 520.886L467.485 516.771C453.201 513.339 447.465 513.326 433.434 516.695C424.164 518.923 416.567 521.557 416.567 522.57C416.567 523.583 417.922 529.13 419.58 534.904C421.239 540.691 421.986 546.035 421.239 546.782C420.492 547.529 408.804 531.08 395.254 510.224L370.625 472.323L336.092 451.403C317.11 439.905 296.279 427.723 289.821 424.342L278.082 418.188L280.197 436.005ZM357.328 569.994C353.833 579.098 354.973 602.145 359.443 612.63C361.748 618.05 367.016 625.598 371.131 629.396C379.122 636.754 407.17 643.478 423.075 641.844C432.218 640.907 431.8 640.312 395.888 602.715C366.294 571.716 359.038 565.562 357.328 569.994ZM522.241 588.026C509.729 601.031 497.244 614.087 484.796 627.18L468.739 644.124L495.04 642.085C518.011 640.287 522.443 638.982 530.066 631.676C542.476 619.785 552.417 595.358 549.808 583.151C545.857 564.662 544.515 564.903 522.241 588.026ZM303.548 679.454C290.454 694.51 284.705 703.666 284.705 709.427C284.705 722.534 333.775 802.907 338.751 797.943C339.499 797.196 338.562 789.838 336.662 781.607C334.775 773.364 331.495 755.255 329.393 741.339L325.569 716.063L343.449 704.54C353.276 698.208 361.33 692.13 361.343 691.028C361.381 687.71 329.431 657.838 325.784 657.8C323.923 657.787 313.919 667.525 303.548 679.454ZM557.672 674.604C538.994 693.523 538.943 693.333 564.814 707.098L576.591 713.378L574.489 732.335C573.324 742.77 570.437 760.701 568.081 772.199C565.713 783.697 563.776 794.537 563.776 796.297C563.776 806.845 611.161 735.412 618.215 714.227C621.216 705.261 620.317 703.501 601.449 681.252C590.495 668.336 579.896 657.762 577.908 657.762C575.92 657.762 566.815 665.334 557.672 674.604ZM377.146 709.909C369.89 721.837 366.484 745.188 370.802 753.28C375.069 761.245 410.362 783.659 432.522 792.472C449.719 799.31 450.276 799.336 466.257 794.068C487.544 787.053 512.503 772.895 525.964 760.207C536.031 750.709 536.613 749.139 534.663 736.856C532.118 720.875 523.874 703.033 518.214 701.272C515.073 700.285 514.554 702.197 516.074 709.136C517.783 716.949 516.593 719.545 507.957 726.827C499.194 734.235 457.595 755.901 452.15 755.901C448.706 755.901 421.569 742.618 403.232 731.955C386.859 722.42 385.415 720.736 386.618 712.505C388.48 699.879 383.997 698.651 377.146 709.909ZM527.584 790.497C518.416 800.286 495.395 812.708 469.98 821.598L449.706 828.689L434.295 822.826C412.172 814.43 395.216 805.452 382.389 795.36C376.247 790.522 370.384 786.571 369.358 786.571C361.912 786.571 380.401 826.486 393.507 838.706C398.04 842.922 412.806 861.195 426.33 879.316C439.854 897.45 451.871 911.696 453.024 910.974C454.189 910.265 463.281 898.197 473.247 884.154C483.213 870.123 498.079 851.394 506.272 842.542C521.544 826.042 537.398 796.512 535.626 787.825C534.828 783.887 533.296 784.393 527.584 790.497Z" fill="#FFBC42"></path>
<path fill-rule="evenodd" clip-rule="evenodd" d="M183.397 387.049C176.66 391.443 135.948 415.642 92.9316 440.816C49.9149 465.991 11.5961 489.975 7.80987 494.128C0.92111 501.676 0.908447 501.941 0.908447 610.591C0.908447 679.036 2.07346 721.672 4.04891 725.357C8.45569 733.588 196.288 844.872 205.583 844.745C208.546 844.707 230.517 833.235 254.387 819.255L297.809 793.84L288.438 776.39C283.297 766.804 277.497 758.953 275.56 758.953C273.61 758.953 258.578 767.234 242.154 777.352C210.775 796.676 207.039 797.892 196.212 792.269C168.683 777.985 50.738 708.135 47.6735 704.311C42.1777 697.422 42.1777 526.103 47.6735 519.138C51.941 513.744 195.085 427.723 203.43 425.532C206.343 424.772 218.664 429.8 230.821 436.688C242.977 443.577 253.551 449.212 254.324 449.212C255.083 449.212 255.299 438.702 254.805 425.861L253.918 402.51L234.189 390.595C210.965 376.564 200.556 375.829 183.397 387.049Z" fill="white"></path>
<path fill-rule="evenodd" clip-rule="evenodd" d="M720.719 387.049C727.456 391.443 768.168 415.642 811.185 440.816C854.201 465.991 892.52 489.975 896.306 494.128C903.195 501.676 903.208 501.941 903.208 610.591C903.208 679.036 902.043 721.672 900.067 725.357C895.661 733.588 707.828 844.872 698.533 844.745C695.57 844.707 673.599 833.235 649.729 819.255L606.307 793.84L615.678 776.39C620.819 766.804 626.619 758.953 628.557 758.953C630.507 758.953 645.538 767.234 661.962 777.352C693.341 796.676 697.077 797.892 707.904 792.269C735.434 777.985 853.378 708.135 856.443 704.311C861.939 697.422 861.939 526.103 856.443 519.138C852.175 513.744 709.031 427.723 700.686 425.532C697.773 424.772 685.452 429.8 673.295 436.688C661.139 443.577 650.565 449.212 649.793 449.212C649.033 449.212 648.818 438.702 649.311 425.861L650.198 402.51L669.927 390.595C693.151 376.564 703.56 375.829 720.719 387.049Z" fill="white"></path>
<path fill-rule="evenodd" clip-rule="evenodd" d="M440.055 3.10689C395.569 27.99 245.89 118.025 243.016 121.609C240.103 125.23 239.179 152.507 239.179 233.994C239.179 324.485 239.913 342.631 243.763 348.14C246.283 351.736 257.553 359.98 268.823 366.45C280.081 372.921 292.858 380.329 297.202 382.9C324.681 399.159 429.519 461.373 437.877 466.375C443.436 469.706 451.034 471.846 454.757 471.124C462.658 469.617 656.987 354.066 662.204 347.772C666.206 342.96 668.156 137.779 664.319 126.18C662.787 121.558 638.385 105.539 586.01 74.7929C544.171 50.2138 498.343 23.2286 484.186 14.8076C457.72 -0.94532 450.641 -2.83213 440.055 3.10689ZM410.917 69.829C383.856 86.0125 356.756 102.158 329.645 118.253L283.639 145.542L282.829 234.969L282.018 324.409L293.567 331.969C318.45 348.253 449.273 422.687 453.034 422.687C456.707 422.687 548.198 369.971 600.332 337.806L622.607 324.067L620.986 145.238L538.181 96.9661C492.645 70.4115 453.313 48.6942 450.78 48.6942C448.248 48.7069 430.317 58.2169 410.917 69.829Z" fill="white"></path>
</svg><style>@media (prefers-color-scheme: light) { :root { filter: contrast(1) brightness(0.1); } }
@media (prefers-color-scheme: dark) { :root { filter: contrast(1) brightness(1); } }
</style></svg>